<?xml version="1.0" encoding="UTF-8" standalone="no"?>
<!-- Created with Inkscape (http://www.inkscape.org/) -->

<svg
   xmlns:dc="http://purl.org/dc/elements/1.1/"
   xmlns:cc="http://creativecommons.org/ns#"
   xmlns:rdf="http://www.w3.org/1999/02/22-rdf-syntax-ns#"
   xmlns:svg="http://www.w3.org/2000/svg"
   xmlns="http://www.w3.org/2000/svg"
   xmlns:sodipodi="http://sodipodi.sourceforge.net/DTD/sodipodi-0.dtd"
   xmlns:inkscape="http://www.inkscape.org/namespaces/inkscape"
   width="744.09448819"
   height="1052.3622047"
   id="svg2"
   version="1.1"
   inkscape:version="0.91 r13725"
   sodipodi:docname="square_array.svg"
   inkscape:export-filename="/home/b5060236/projects/CANS/docs/lab_meeting_presentation/images/diffusion_model.png"
   inkscape:export-xdpi="90"
   inkscape:export-ydpi="90">
  <sodipodi:namedview
     id="base"
     pagecolor="#ffffff"
     bordercolor="#666666"
     borderopacity="1.0"
     inkscape:pageopacity="0.0"
     inkscape:pageshadow="2"
     inkscape:zoom="0.86610927"
     inkscape:cx="-409.5011"
     inkscape:cy="419.35902"
     inkscape:document-units="px"
     inkscape:current-layer="svg2"
     showgrid="false"
     inkscape:window-width="2495"
     inkscape:window-height="1416"
     inkscape:window-x="65"
     inkscape:window-y="24"
     inkscape:window-maximized="1" />
  <defs
     id="defs4">
    <marker
       inkscape:stockid="TriangleOutL"
       orient="auto"
       refY="0.0"
       refX="0.0"
       id="TriangleOutL"
       style="overflow:visible">
      <path
         id="path6392"
         d="M 5.77,0.0 L -2.88,5.0 L -2.88,-5.0 L 5.77,0.0 z "
         style="fill-rule:evenodd;stroke:#000000;stroke-width:1.0pt"
         transform="scale(0.8)" />
    </marker>
    <marker
       inkscape:stockid="TriangleInL"
       orient="auto"
       refY="0.0"
       refX="0.0"
       id="TriangleInL"
       style="overflow:visible">
      <path
         id="path6383"
         d="M 5.77,0.0 L -2.88,5.0 L -2.88,-5.0 L 5.77,0.0 z "
         style="fill-rule:evenodd;stroke:#000000;stroke-width:1.0pt"
         transform="scale(-0.8)" />
    </marker>
    <marker
       style="overflow:visible;"
       id="Arrow1Lend"
       refX="0.0"
       refY="0.0"
       orient="auto"
       inkscape:stockid="Arrow1Lend">
      <path
         transform="scale(0.8) rotate(180) translate(12.5,0)"
         style="fill-rule:evenodd;stroke:#000000;stroke-width:1.0pt;"
         d="M 0.0,0.0 L 5.0,-5.0 L -12.5,0.0 L 5.0,5.0 L 0.0,0.0 z "
         id="path6253" />
    </marker>
    <marker
       style="overflow:visible"
       id="Arrow2Lstart"
       refX="0.0"
       refY="0.0"
       orient="auto"
       inkscape:stockid="Arrow2Lstart">
      <path
         transform="scale(1.1) translate(1,0)"
         d="M 8.7185878,4.0337352 L -2.2072895,0.016013256 L 8.7185884,-4.0017078 C 6.9730900,-1.6296469 6.9831476,1.6157441 8.7185878,4.0337352 z "
         style="fill-rule:evenodd;stroke-width:0.62500000;stroke-linejoin:round"
         id="path6268" />
    </marker>
    <inkscape:perspective
       sodipodi:type="inkscape:persp3d"
       inkscape:vp_x="182.96615 : 850.34937 : 1"
       inkscape:vp_y="0 : 1000 : 0"
       inkscape:vp_z="656.58896 : 1027.3492 : 1"
       inkscape:persp3d-origin="372.04724 : 350.78739 : 1"
       id="perspective3757" />
    <marker
       inkscape:stockid="TriangleInL"
       orient="auto"
       refY="0"
       refX="0"
       id="TriangleInL-0"
       style="overflow:visible">
      <path
         inkscape:connector-curvature="0"
         id="path6383-5"
         d="m 5.77,0 -8.65,5 0,-10 8.65,5 z"
         style="fill-rule:evenodd;stroke:#000000;stroke-width:1pt"
         transform="scale(-0.8,-0.8)" />
    </marker>
    <marker
       inkscape:stockid="TriangleOutL"
       orient="auto"
       refY="0"
       refX="0"
       id="TriangleOutL-7"
       style="overflow:visible">
      <path
         inkscape:connector-curvature="0"
         id="path6392-7"
         d="m 5.77,0 -8.65,5 0,-10 8.65,5 z"
         style="fill-rule:evenodd;stroke:#000000;stroke-width:1pt"
         transform="scale(0.8,0.8)" />
    </marker>
    <marker
       inkscape:stockid="TriangleInL"
       orient="auto"
       refY="0"
       refX="0"
       id="TriangleInL-8"
       style="overflow:visible">
      <path
         inkscape:connector-curvature="0"
         id="path6383-1"
         d="m 5.77,0 -8.65,5 0,-10 8.65,5 z"
         style="fill-rule:evenodd;stroke:#000000;stroke-width:1pt"
         transform="scale(-0.8,-0.8)" />
    </marker>
    <marker
       inkscape:stockid="TriangleOutL"
       orient="auto"
       refY="0"
       refX="0"
       id="TriangleOutL-8"
       style="overflow:visible">
      <path
         inkscape:connector-curvature="0"
         id="path6392-1"
         d="m 5.77,0 -8.65,5 0,-10 8.65,5 z"
         style="fill-rule:evenodd;stroke:#000000;stroke-width:1pt"
         transform="scale(0.8,0.8)" />
    </marker>
    <marker
       inkscape:stockid="TriangleInL"
       orient="auto"
       refY="0"
       refX="0"
       id="TriangleInL-7"
       style="overflow:visible">
      <path
         inkscape:connector-curvature="0"
         id="path6383-50"
         d="m 5.77,0 -8.65,5 0,-10 8.65,5 z"
         style="fill-rule:evenodd;stroke:#000000;stroke-width:1pt"
         transform="scale(-0.8,-0.8)" />
    </marker>
    <marker
       inkscape:stockid="TriangleOutL"
       orient="auto"
       refY="0"
       refX="0"
       id="TriangleOutL-0"
       style="overflow:visible">
      <path
         inkscape:connector-curvature="0"
         id="path6392-9"
         d="m 5.77,0 -8.65,5 0,-10 8.65,5 z"
         style="fill-rule:evenodd;stroke:#000000;stroke-width:1pt"
         transform="scale(0.8,0.8)" />
    </marker>
    <marker
       inkscape:stockid="TriangleInL"
       orient="auto"
       refY="0"
       refX="0"
       id="TriangleInL-4"
       style="overflow:visible">
      <path
         inkscape:connector-curvature="0"
         id="path6383-14"
         d="m 5.77,0 -8.65,5 0,-10 8.65,5 z"
         style="fill-rule:evenodd;stroke:#000000;stroke-width:1pt"
         transform="scale(-0.8,-0.8)" />
    </marker>
    <marker
       inkscape:stockid="TriangleOutL"
       orient="auto"
       refY="0"
       refX="0"
       id="TriangleOutL-3"
       style="overflow:visible">
      <path
         inkscape:connector-curvature="0"
         id="path6392-0"
         d="m 5.77,0 -8.65,5 0,-10 8.65,5 z"
         style="fill-rule:evenodd;stroke:#000000;stroke-width:1pt"
         transform="scale(0.8,0.8)" />
    </marker>
    <marker
       inkscape:stockid="TriangleInL"
       orient="auto"
       refY="0"
       refX="0"
       id="TriangleInL-4-8"
       style="overflow:visible">
      <path
         inkscape:connector-curvature="0"
         id="path6383-14-1"
         d="m 5.77,0 -8.65,5 0,-10 8.65,5 z"
         style="fill-rule:evenodd;stroke:#000000;stroke-width:1pt"
         transform="scale(-0.8,-0.8)" />
    </marker>
    <marker
       inkscape:stockid="TriangleOutL"
       orient="auto"
       refY="0"
       refX="0"
       id="TriangleOutL-3-5"
       style="overflow:visible">
      <path
         inkscape:connector-curvature="0"
         id="path6392-0-8"
         d="m 5.77,0 -8.65,5 0,-10 8.65,5 z"
         style="fill-rule:evenodd;stroke:#000000;stroke-width:1pt"
         transform="scale(0.8,0.8)" />
    </marker>
    <marker
       inkscape:stockid="TriangleInL"
       orient="auto"
       refY="0"
       refX="0"
       id="TriangleInL-4-9"
       style="overflow:visible">
      <path
         inkscape:connector-curvature="0"
         id="path6383-14-6"
         d="m 5.77,0 -8.65,5 0,-10 8.65,5 z"
         style="fill-rule:evenodd;stroke:#000000;stroke-width:1pt"
         transform="scale(-0.8,-0.8)" />
    </marker>
    <marker
       inkscape:stockid="TriangleOutL"
       orient="auto"
       refY="0"
       refX="0"
       id="TriangleOutL-3-8"
       style="overflow:visible">
      <path
         inkscape:connector-curvature="0"
         id="path6392-0-7"
         d="m 5.77,0 -8.65,5 0,-10 8.65,5 z"
         style="fill-rule:evenodd;stroke:#000000;stroke-width:1pt"
         transform="scale(0.8,0.8)" />
    </marker>
    <marker
       inkscape:stockid="TriangleInL"
       orient="auto"
       refY="0"
       refX="0"
       id="TriangleInL-4-3"
       style="overflow:visible">
      <path
         inkscape:connector-curvature="0"
         id="path6383-14-4"
         d="m 5.77,0 -8.65,5 0,-10 8.65,5 z"
         style="fill-rule:evenodd;stroke:#000000;stroke-width:1pt"
         transform="scale(-0.8,-0.8)" />
    </marker>
    <marker
       inkscape:stockid="TriangleOutL"
       orient="auto"
       refY="0"
       refX="0"
       id="TriangleOutL-3-54"
       style="overflow:visible">
      <path
         inkscape:connector-curvature="0"
         id="path6392-0-4"
         d="m 5.77,0 -8.65,5 0,-10 8.65,5 z"
         style="fill-rule:evenodd;stroke:#000000;stroke-width:1pt"
         transform="scale(0.8,0.8)" />
    </marker>
  </defs>
  <metadata
     id="metadata7">
    <rdf:RDF>
      <cc:Work
         rdf:about="">
        <dc:format>image/svg+xml</dc:format>
        <dc:type
           rdf:resource="http://purl.org/dc/dcmitype/StillImage" />
        <dc:title />
      </cc:Work>
    </rdf:RDF>
  </metadata>
  <g
     inkscape:label="Layer 1"
     inkscape:groupmode="layer"
     id="layer1" />
  <g
     style="opacity:0.1;stroke:#000000;stroke-width:3.5418303;stroke-linecap:butt;stroke-linejoin:miter;stroke-miterlimit:5;stroke-opacity:1;stroke-dasharray:3.54183036, 7.08366072;stroke-dashoffset:0"
     transform="matrix(0.99413159,0,0,0.99413159,1.7605227,454.12271)"
     inkscape:label="Grid_Polar:X3:Y3"
     id="g5858">
    <g
       style="stroke:#000000;stroke-width:3.5418303;stroke-linecap:butt;stroke-linejoin:miter;stroke-miterlimit:5;stroke-opacity:1;stroke-dasharray:3.54183036, 7.08366072;stroke-dashoffset:0"
       inkscape:label="MajorXGridlines"
       id="g5860">
      <path
         inkscape:connector-curvature="0"
         d="m 200,0 0,600"
         style="fill:none;stroke:#000000;stroke-width:3.5418303;stroke-linecap:butt;stroke-linejoin:miter;stroke-miterlimit:5;stroke-opacity:1;stroke-dasharray:3.54183036, 7.08366072;stroke-dashoffset:0"
         inkscape:label="MajorXDiv1"
         id="path5862" />
      <path
         inkscape:connector-curvature="0"
         d="m 400,0 0,600"
         style="fill:none;stroke:#000000;stroke-width:3.5418303;stroke-linecap:butt;stroke-linejoin:miter;stroke-miterlimit:5;stroke-opacity:1;stroke-dasharray:3.54183036, 7.08366072;stroke-dashoffset:0"
         inkscape:label="MajorXDiv2"
         id="path5864" />
    </g>
    <g
       style="stroke:#000000;stroke-width:3.5418303;stroke-linecap:butt;stroke-linejoin:miter;stroke-miterlimit:5;stroke-opacity:1;stroke-dasharray:3.54183036, 7.08366072;stroke-dashoffset:0"
       inkscape:label="MajorYGridlines"
       id="g5866">
      <path
         inkscape:connector-curvature="0"
         d="m 0,200 600,0"
         style="fill:none;stroke:#000000;stroke-width:3.5418303;stroke-linecap:butt;stroke-linejoin:miter;stroke-miterlimit:5;stroke-opacity:1;stroke-dasharray:3.54183036, 7.08366072;stroke-dashoffset:0"
         inkscape:label="MajorYDiv1"
         id="path5868" />
      <path
         inkscape:connector-curvature="0"
         d="m 0,400 600,0"
         style="fill:none;stroke:#000000;stroke-width:3.5418303;stroke-linecap:butt;stroke-linejoin:miter;stroke-miterlimit:5;stroke-opacity:1;stroke-dasharray:3.54183036, 7.08366072;stroke-dashoffset:0"
         inkscape:label="MajorYDiv2"
         id="path5870" />
    </g>
    <rect
       height="600"
       style="fill:none;stroke:#000000;stroke-width:3.5418303;stroke-linecap:butt;stroke-linejoin:miter;stroke-miterlimit:5;stroke-opacity:1;stroke-dasharray:3.54183036, 7.08366072;stroke-dashoffset:0"
       width="600"
       x="0"
       y="0"
       inkscape:label="Border"
       id="rect5872" />
  </g>
  <path
     transform="matrix(1.1152362,0,0,0.81666903,-290.35258,757.60109)"
     d="m 415.77879,238.48228 a 65.760933,89.802559 0 1 1 -131.52187,0 65.760933,89.802559 0 1 1 131.52187,0 z"
     sodipodi:ry="89.802559"
     sodipodi:rx="65.760933"
     sodipodi:cy="238.48228"
     sodipodi:cx="350.01785"
     id="path7132"
     style="opacity:0.13999998999999999;fill:#00b0ff;stroke:#000000;stroke-width:3.48097837999999982;stroke-linecap:butt;stroke-linejoin:miter;stroke-miterlimit:5;stroke-opacity:1;stroke-dasharray:none;stroke-dashoffset:0;fill-opacity:1"
     sodipodi:type="arc" />
  <path
     transform="matrix(1.1152362,0,0,0.81666903,-90.352576,757.60109)"
     d="m 415.77879,238.48228 a 65.760933,89.802559 0 1 1 -131.52187,0 65.760933,89.802559 0 1 1 131.52187,0 z"
     sodipodi:ry="89.802559"
     sodipodi:rx="65.760933"
     sodipodi:cy="238.48228"
     sodipodi:cx="350.01785"
     id="path7132-1"
     style="opacity:0.5;fill:#00b0ff;stroke:#000000;stroke-width:3.48097837999999982;stroke-linecap:butt;stroke-linejoin:miter;stroke-miterlimit:5;stroke-opacity:1;stroke-dasharray:none;stroke-dashoffset:0;fill-opacity:1"
     sodipodi:type="arc" />
  <path
     transform="matrix(1.1152362,0,0,0.81666903,109.64742,758.60109)"
     d="m 415.77879,238.48228 a 65.760933,89.802559 0 1 1 -131.52187,0 65.760933,89.802559 0 1 1 131.52187,0 z"
     sodipodi:ry="89.802559"
     sodipodi:rx="65.760933"
     sodipodi:cy="238.48228"
     sodipodi:cx="350.01785"
     id="path7132-3"
     style="opacity:0.13999998999999999;fill:#00b0ff;stroke:#000000;stroke-width:3.48097837999999982;stroke-linecap:butt;stroke-linejoin:miter;stroke-miterlimit:5;stroke-opacity:1;stroke-dasharray:none;stroke-dashoffset:0;marker-start:none;fill-opacity:1"
     sodipodi:type="arc" />
  <path
     transform="matrix(1.1152362,0,0,0.81666903,-90.352576,557.60109)"
     d="m 415.77879,238.48228 a 65.760933,89.802559 0 1 1 -131.52187,0 65.760933,89.802559 0 1 1 131.52187,0 z"
     sodipodi:ry="89.802559"
     sodipodi:rx="65.760933"
     sodipodi:cy="238.48228"
     sodipodi:cx="350.01785"
     id="path7132-3-9"
     style="opacity:0.75;fill:#ff3300;stroke:#000000;stroke-width:3.48097837999999982;stroke-linecap:butt;stroke-linejoin:miter;stroke-miterlimit:5;stroke-opacity:1;stroke-dasharray:none;stroke-dashoffset:0;fill-opacity:1"
     sodipodi:type="arc" />
  <path
     transform="matrix(1.1152362,0,0,0.81666903,-290.35258,557.60109)"
     d="m 415.77879,238.48228 a 65.760933,89.802559 0 1 1 -131.52187,0 65.760933,89.802559 0 1 1 131.52187,0 z"
     sodipodi:ry="89.802559"
     sodipodi:rx="65.760933"
     sodipodi:cy="238.48228"
     sodipodi:cx="350.01785"
     id="path7132-3-7"
     style="opacity:0.50000000000000000;fill:#00b0ff;stroke:#000000;stroke-width:3.48097837999999982;stroke-linecap:butt;stroke-linejoin:miter;stroke-miterlimit:5;stroke-opacity:1;stroke-dasharray:none;stroke-dashoffset:0;fill-opacity:1"
     sodipodi:type="arc" />
  <path
     transform="matrix(1.1152362,0,0,0.81666903,-290.35258,357.60109)"
     d="m 415.77879,238.48228 a 65.760933,89.802559 0 1 1 -131.52187,0 65.760933,89.802559 0 1 1 131.52187,0 z"
     sodipodi:ry="89.802559"
     sodipodi:rx="65.760933"
     sodipodi:cy="238.48228"
     sodipodi:cx="350.01785"
     id="path7132-3-0"
     style="opacity:0.13999998999999999;fill:#00b0ff;stroke:#000000;stroke-width:3.48097837999999982;stroke-linecap:butt;stroke-linejoin:miter;stroke-miterlimit:5;stroke-opacity:1;stroke-dasharray:none;stroke-dashoffset:0;fill-opacity:1"
     sodipodi:type="arc" />
  <path
     transform="matrix(1.1152362,0,0,0.81666903,-90.352576,357.60109)"
     d="m 415.77879,238.48228 a 65.760933,89.802559 0 1 1 -131.52187,0 65.760933,89.802559 0 1 1 131.52187,0 z"
     sodipodi:ry="89.802559"
     sodipodi:rx="65.760933"
     sodipodi:cy="238.48228"
     sodipodi:cx="350.01785"
     id="path7132-3-8"
     style="opacity:0.5;fill:#00b0ff;stroke:#000000;stroke-width:3.48097837999999982;stroke-linecap:butt;stroke-linejoin:miter;stroke-miterlimit:5;stroke-opacity:1;stroke-dasharray:none;stroke-dashoffset:0;fill-opacity:1"
     sodipodi:type="arc" />
  <path
     transform="matrix(1.1152362,0,0,0.81666903,109.64742,357.60109)"
     d="m 415.77879,238.48228 a 65.760933,89.802559 0 1 1 -131.52187,0 65.760933,89.802559 0 1 1 131.52187,0 z"
     sodipodi:ry="89.802559"
     sodipodi:rx="65.760933"
     sodipodi:cy="238.48228"
     sodipodi:cx="350.01785"
     id="path7132-3-4"
     style="opacity:0.13999998999999999;fill:#00b0ff;stroke:#000000;stroke-width:3.48097837999999982;stroke-linecap:butt;stroke-linejoin:miter;stroke-miterlimit:5;stroke-opacity:1;stroke-dasharray:none;stroke-dashoffset:0;fill-opacity:1"
     sodipodi:type="arc" />
  <path
     transform="matrix(1.1152362,0,0,0.81666903,109.64742,557.60109)"
     d="m 415.77879,238.48228 a 65.760933,89.802559 0 1 1 -131.52187,0 65.760933,89.802559 0 1 1 131.52187,0 z"
     sodipodi:ry="89.802559"
     sodipodi:rx="65.760933"
     sodipodi:cy="238.48228"
     sodipodi:cx="350.01785"
     id="path7132-3-6"
     style="opacity:0.5;fill:#00b0ff;stroke:#000000;stroke-width:3.48097837999999982;stroke-linecap:butt;stroke-linejoin:miter;stroke-miterlimit:5;stroke-opacity:1;stroke-dasharray:none;stroke-dashoffset:0;fill-opacity:1"
     sodipodi:type="arc" />
  <path
     style="fill:none;stroke:#000000;stroke-width:1;stroke-linecap:butt;stroke-linejoin:miter;stroke-miterlimit:4;stroke-opacity:1;stroke-dasharray:none;marker-start:url(#TriangleInL);marker-mid:none;marker-end:url(#TriangleOutL)"
     d="m 179.96081,752.36241 39.9369,0"
     id="path7990"
     inkscape:connector-curvature="0" />
  <path
     style="fill:none;stroke:#000000;stroke-width:0.93898731000000002;stroke-linecap:butt;stroke-linejoin:miter;stroke-miterlimit:4;stroke-opacity:1;stroke-dasharray:none;marker-start:url(#TriangleInL);marker-mid:none;marker-end:url(#TriangleOutL);fill-opacity:1"
     d="m 300.0685,672.55838 0,-40.98304"
     id="path7990-6"
     inkscape:connector-curvature="0" />
  <path
     style="fill:none;stroke:#000000;stroke-width:0.98864281;stroke-linecap:butt;stroke-linejoin:miter;stroke-miterlimit:4;stroke-opacity:1;stroke-dasharray:none;marker-start:url(#TriangleInL);marker-mid:none;marker-end:url(#TriangleOutL)"
     d="m 300.068,872.97004 0,-40.00066"
     id="path7990-6-4"
     inkscape:connector-curvature="0" />
  <path
     style="fill:none;stroke:#000000;stroke-width:0.99839729;stroke-linecap:butt;stroke-linejoin:miter;stroke-miterlimit:4;stroke-opacity:1;stroke-dasharray:none;marker-start:url(#TriangleInL);marker-mid:none;marker-end:url(#TriangleOutL)"
     d="m 380.09949,752.36218 39.80102,0"
     id="path7990-5"
     inkscape:connector-curvature="0" />
  <text
     xml:space="preserve"
     style="font-style:normal;font-weight:normal;font-size:40.00001144px;line-height:125%;font-family:Sans;letter-spacing:0px;word-spacing:0px;fill:#000000;fill-opacity:1;stroke:none"
     x="247.936"
     y="765.23419"
     id="text10517"
     sodipodi:linespacing="125%"><tspan
       sodipodi:role="line"
       id="tspan10519"
       x="247.936"
       y="765.23419"
       style="font-style:italic;font-variant:normal;font-weight:normal;font-stretch:normal;font-size:48px;font-family:FreeSerif;-inkscape-font-specification:'FreeSerif Italic'">C<tspan
   style="font-style:italic;font-variant:normal;font-weight:normal;font-stretch:normal;font-size:48px;font-family:FreeSerif;-inkscape-font-specification:'FreeSerif Italic';baseline-shift:sub"
   id="tspan10521">i</tspan> N<tspan
   style="font-style:italic;font-variant:normal;font-weight:normal;font-stretch:normal;font-size:48px;font-family:FreeSerif;-inkscape-font-specification:'FreeSerif Italic';baseline-shift:sub"
   id="tspan10523">i</tspan></tspan></text>
  <g
     id="g4513"
     transform="translate(15.009653,512.6374)">
    <g
       word-spacing="normal"
       letter-spacing="normal"
       font-size-adjust="none"
       font-stretch="normal"
       font-weight="normal"
       font-variant="normal"
       font-style="normal"
       stroke-miterlimit="10.433"
       xml:space="preserve"
       transform="matrix(1.0629921,0,0,-1.0629921,-186.02362,789.27165)"
       id="g4515"
       style="font-style:normal;font-variant:normal;font-weight:normal;font-stretch:normal;letter-spacing:normal;word-spacing:normal;text-anchor:start;fill:none;fill-opacity:1;fill-rule:evenodd;stroke:#000000;stroke-linecap:butt;stroke-linejoin:miter;stroke-miterlimit:10.43299961;stroke-dasharray:none;stroke-dashoffset:0;stroke-opacity:1"><path
         id="path4517"
         d="m 470.3,440.02 0,0.01 0,0 0,0.01 0,0.01 0,0.01 -0.01,0.01 0,0.02 0,0.02 0,0.02 -0.01,0.02 0,0.02 -0.01,0.02 -0.01,0.03 -0.01,0.02 -0.01,0.03 -0.01,0.02 -0.01,0.02 -0.02,0.03 -0.02,0.02 -0.02,0.03 -0.02,0.02 -0.01,0.01 -0.02,0.01 -0.01,0.01 -0.01,0.01 -0.02,0.01 -0.01,0.01 -0.02,0.01 -0.02,0.01 -0.01,0.01 -0.02,0.01 -0.02,0.01 -0.02,0 -0.02,0.01 -0.02,0.01 -0.02,0 -0.03,0.01 -0.02,0 -0.03,0.01 -0.02,0 -0.03,0 -0.02,0.01 -0.03,0 -0.03,0 -0.03,0 c -1.15,0 -4.78,-0.4 -6.08,-0.5 -0.4,-0.05 -0.95,-0.1 -0.95,-1 0,-0.59 0.45,-0.59 1.2,-0.59 2.39,0 2.49,-0.35 2.49,-0.85 l -0.15,-0.99 -7.22,-28.7 c -0.2,-0.69 -0.2,-0.8 -0.2,-1.09 0,-1.15 0.99,-1.4 1.44,-1.4 0.65,0 1.4,0.45 1.7,1.05 0.25,0.45 2.49,9.66 2.79,10.91 1.69,-0.15 5.78,-0.95 5.78,-4.24 0,-0.35 0,-0.55 -0.15,-1.04 -0.1,-0.6 -0.2,-1.2 -0.2,-1.75 0,-2.93 1.99,-4.93 4.58,-4.93 1.5,0 2.84,0.8 3.93,2.64 1.25,2.2 1.8,4.93 1.8,5.03 0,0.5 -0.45,0.5 -0.6,0.5 -0.5,0 -0.55,-0.2 -0.7,-0.89 -0.99,-3.64 -2.14,-6.18 -4.33,-6.18 -0.95,0 -1.6,0.55 -1.6,2.34 0,0.84 0.21,1.99 0.41,2.79 0.2,0.85 0.2,1.05 0.2,1.54 0,3.24 -3.15,4.69 -7.38,5.23 1.55,0.9 3.14,2.5 4.29,3.69 2.39,2.64 4.68,4.78 7.12,4.78 0.3,0 0.35,0 0.45,-0.05 0.59,-0.1 0.64,-0.1 1.04,-0.4 0.1,-0.05 0.1,-0.09 0.2,-0.2 -2.39,-0.15 -2.84,-2.09 -2.84,-2.68 0,-0.8 0.55,-1.75 1.9,-1.75 1.29,0 2.73,1.1 2.73,3.04 0,1.5 -1.14,3.14 -3.38,3.14 -1.4,0 -3.69,-0.4 -7.28,-4.39 -1.69,-1.89 -3.63,-3.88 -5.52,-4.63 z"
         inkscape:connector-curvature="0"
         style="fill:#000000;stroke-width:0" /></g>  </g>
</svg>
